<?xml version="1.0" encoding="utf-8"?>
<!-- Generator: Adobe Illustrator 21.1.0, SVG Export Plug-In . SVG Version: 6.00 Build 0)  -->
<svg version="1.1" id="Layer_1" xmlns="http://www.w3.org/2000/svg" xmlns:xlink="http://www.w3.org/1999/xlink" x="0px" y="0px"
	 viewBox="0 0 435.8 19.8" style="enable-background:new 0 0 435.8 19.8;" xml:space="preserve">
<g>
	<g>
		<path d="M244.6,4.9c0.1-0.1,0.1-0.1,0.2,0l4.3,9.8c0.1,0.1,0,0.2-0.1,0.2h-0.9c-0.1,0-0.2,0-0.2-0.1l-1-2.3h-4.4l-1,2.3
			c-0.1,0.1-0.1,0.1-0.2,0.1h-1c-0.1,0-0.1-0.1,0-0.2L244.6,4.9z M243,11.3h3.4l-1.6-3.9c-0.1-0.1-0.1-0.1-0.1,0L243,11.3z"/>
		<path d="M253.1,14.9c-0.2,0-0.2,0-0.2-0.2V5c0-0.1,0-0.1,0.1-0.1h0.9c0.2,0,0.2,0.1,0.2,0.2v8.6c0,0.1,0,0.1,0.1,0.1h3.3
			c0.1,0,0.2,0,0.2,0.2v0.8c0,0.1,0,0.2-0.2,0.2L253.1,14.9L253.1,14.9z"/>
		<path d="M263.8,14.9c-0.1,0-0.1,0-0.1-0.2V6.2c0-0.1,0-0.1-0.1-0.1h-3.1c-0.1,0-0.1,0-0.1-0.1V5c0-0.1,0-0.1,0.1-0.1h7.8
			c0.1,0,0.1,0,0.1,0.1v0.9c0,0.1,0,0.1-0.1,0.1H265c-0.1,0-0.1,0-0.1,0.1v8.6c0,0.1,0,0.2-0.1,0.2L263.8,14.9L263.8,14.9z"/>
		<path d="M276.3,4.7c2.9,0,5.2,2.3,5.2,5.2s-2.3,5.2-5.2,5.2c-2.9,0-5.2-2.3-5.2-5.2C271.1,7,273.4,4.7,276.3,4.7z M276.3,13.9
			c2.2,0,4-1.8,4-4s-1.8-4-4-4s-4,1.8-4,4S274.1,13.9,276.3,13.9z"/>
		<path d="M290.4,13.9c1,0,1.9-0.2,2.5-0.5v-3.2c0-0.1,0-0.2-0.1-0.2H290c-0.1,0-0.1,0-0.1-0.2V9.1c0-0.1,0.1-0.2,0.2-0.2h3.8
			c0.2,0,0.2,0,0.2,0.2v4.8c0,0.2,0,0.2-0.2,0.3c-0.9,0.5-2.3,0.8-3.6,0.8c-2.9,0-5.2-2.1-5.2-5.2c0-3,2.3-5.2,5.3-5.2
			c1.2,0,2.3,0.3,3.3,0.8c0.1,0.1,0.2,0.1,0.2,0.2v0.9c0,0.1-0.1,0.2-0.2,0c-0.8-0.5-1.9-0.8-3.2-0.8c-2.4,0-4,1.8-4,4
			C286.4,12.1,288.2,13.9,290.4,13.9z"/>
		<path d="M299.3,5c0-0.1,0-0.1,0.1-0.1h4.9c0.1,0,0.2,0,0.2,0.1v0.8c0,0.1,0,0.1-0.2,0.1h-3.9l0,0V9l0,0h3.9c0.1,0,0.1,0.1,0.1,0.2
			v0.7c0,0.2,0,0.2-0.1,0.2h-3.8c0,0-0.1,0-0.1,0.1v3.4l0,0h3.9c0.1,0,0.1,0.1,0.1,0.2v0.7c0,0.1-0.1,0.2-0.2,0.2h-4.9
			c-0.1,0-0.2,0-0.2-0.1L299.3,5L299.3,5z"/>
		<path d="M312,14.9c-0.1,0-0.1,0-0.1-0.2V6.2c0-0.1,0-0.1-0.1-0.1h-3.1c-0.1,0-0.1,0-0.1-0.1V5c0-0.1,0-0.1,0.1-0.1h7.8
			c0.1,0,0.1,0,0.1,0.1v0.9c0,0.1,0,0.1-0.1,0.1h-3.2c-0.1,0-0.1,0-0.1,0.1v8.6c0,0.1,0,0.2-0.1,0.2L312,14.9L312,14.9z"/>
		<path d="M320.9,14.9c-0.1,0-0.2,0-0.2-0.1V5.1c0-0.1,0-0.2,0.1-0.2h0.9c0.1,0,0.1,0,0.1,0.1v4.1v0.1h4.5c0,0,0.1,0,0.1-0.1V5
			c0-0.1,0.1-0.1,0.2-0.1h0.9c0.1,0,0.2,0.1,0.2,0.2v9.7c0,0.1,0,0.1-0.1,0.1h-0.9c-0.2,0-0.2,0-0.2-0.2v-4.3c0-0.1,0-0.1-0.1-0.1
			H322l0,0v4.4c0,0.1,0,0.2-0.1,0.2L320.9,14.9L320.9,14.9z"/>
		<path d="M332.6,5c0-0.1,0-0.1,0.1-0.1h4.9c0.1,0,0.2,0,0.2,0.1v0.8c0,0.1,0,0.1-0.2,0.1h-3.9l0,0V9l0,0h3.9c0.1,0,0.1,0.1,0.1,0.2
			v0.7c0,0.2,0,0.2-0.1,0.2h-3.8c0,0-0.1,0-0.1,0.1v3.4l0,0h3.9c0.1,0,0.1,0.1,0.1,0.2v0.7c0,0.1-0.1,0.2-0.2,0.2h-4.9
			c-0.1,0-0.2,0-0.2-0.1L332.6,5L332.6,5z"/>
		<path d="M344.8,4.9c2.8,0,3.6,1.1,3.6,2.8c0,1.3-0.5,2.4-1.8,2.8l3.5,4.2c0.1,0.1,0.1,0.2-0.1,0.2h-1.1c-0.1,0-0.2,0-0.2-0.1
			l-3.3-4.1h-1.3c-0.1,0-0.2,0-0.2,0.2v3.9c0,0.1,0,0.2-0.1,0.2h-0.9c-0.1,0-0.1,0-0.1-0.2V5.1c0-0.1,0.1-0.2,0.2-0.2H344.8z
			 M343.7,9.4c0,0.1,0,0.2,0.1,0.2h0.9c1.6,0,2.3-0.5,2.3-1.8S346.2,6,344.7,6h-0.9c-0.1,0-0.2,0-0.2,0.2L343.7,9.4L343.7,9.4z"/>
		<path d="M363.3,15c-0.9,0-1.8-0.2-2.3-0.5c-0.1-0.1-0.1-0.1-0.1-0.2v-0.9c0-0.1,0.1-0.1,0.2-0.1c0.6,0.4,1.3,0.6,2,0.6
			c1.4,0,2.2-0.6,2.2-1.8c0-1.4-1.2-1.9-2.3-2.4c-1.1-0.5-2-1.1-2-2.7c0-1.4,0.9-2.4,2.7-2.4c0.9,0,1.6,0.2,2.1,0.5
			c0.1,0.1,0.1,0.1,0.1,0.2v0.9c0,0.1-0.1,0.1-0.1,0.1c-0.5-0.3-1.1-0.6-1.8-0.6c-1.2,0-1.7,0.5-1.7,1.4c0,1,0.8,1.4,1.8,1.9
			c1.1,0.5,2.4,1.2,2.4,3.1C366.4,14.2,365.1,15,363.3,15z"/>
		<path d="M379.2,14.9c-0.1,0-0.1,0-0.1-0.2v-7c0-0.1-0.1-0.1-0.1,0l-3.4,4c-0.1,0.2-0.2,0.2-0.3,0l-3.4-4c-0.1-0.1-0.2-0.1-0.2,0.1
			v6.9c0,0.1,0,0.2-0.1,0.2h-0.9c-0.1,0-0.2,0-0.2-0.2V4.9c0-0.1,0.1-0.1,0.2-0.1l4.6,5.2c0.1,0.1,0.2,0.1,0.3,0l4.5-5.1
			c0.1-0.1,0.2-0.1,0.2,0.1v9.8c0,0.1,0,0.1-0.1,0.1L379.2,14.9L379.2,14.9z"/>
		<path d="M388.1,4.9c0.1-0.1,0.1-0.1,0.2,0l4.3,9.8c0.1,0.1,0,0.2-0.1,0.2h-0.9c-0.1,0-0.2,0-0.2-0.1l-1-2.3H386l-1,2.3
			c-0.1,0.1-0.1,0.1-0.2,0.1h-1c-0.1,0-0.1-0.1,0-0.2L388.1,4.9z M386.5,11.3h3.4l-1.6-3.9c-0.1-0.1-0.1-0.1-0.1,0L386.5,11.3z"/>
		<path d="M399,4.9c2.8,0,3.6,1.1,3.6,2.8c0,1.3-0.5,2.4-1.8,2.8l3.5,4.2c0.1,0.1,0.1,0.2-0.1,0.2H403c-0.1,0-0.2,0-0.2-0.1
			l-3.3-4.1h-1.3c-0.1,0-0.2,0-0.2,0.2v3.9c0,0.1,0,0.2-0.1,0.2H397c-0.1,0-0.1,0-0.1-0.2V5.1c0-0.1,0.1-0.2,0.2-0.2H399z
			 M397.9,9.4c0,0.1,0,0.2,0.1,0.2h0.9c1.6,0,2.3-0.5,2.3-1.8S400.4,6,398.9,6H398c-0.1,0-0.2,0-0.2,0.2L397.9,9.4L397.9,9.4z"/>
		<path d="M410.2,14.9c-0.1,0-0.1,0-0.1-0.2V6.2c0-0.1,0-0.1-0.1-0.1h-3.1c-0.1,0-0.1,0-0.1-0.1V5c0-0.1,0-0.1,0.1-0.1h7.8
			c0.1,0,0.1,0,0.1,0.1v0.9c0,0.1,0,0.1-0.1,0.1h-3.2c-0.1,0-0.1,0-0.1,0.1v8.6c0,0.1,0,0.2-0.1,0.2L410.2,14.9L410.2,14.9z"/>
		<path d="M418.7,5c0-0.1,0-0.1,0.1-0.1h4.9c0.1,0,0.2,0,0.2,0.1v0.8c0,0.1,0,0.1-0.2,0.1h-3.9l0,0V9l0,0h3.9c0.1,0,0.1,0.1,0.1,0.2
			v0.7c0,0.2,0,0.2-0.1,0.2h-3.8c0,0-0.1,0-0.1,0.1v3.4l0,0h3.9c0.1,0,0.1,0.1,0.1,0.2v0.7c0,0.1-0.1,0.2-0.2,0.2h-4.9
			c-0.1,0-0.2,0-0.2-0.1L418.7,5L418.7,5z"/>
		<path d="M430.5,4.9c2.8,0,3.6,1.1,3.6,2.8c0,1.3-0.5,2.4-1.8,2.8l3.5,4.2c0.1,0.1,0.1,0.2-0.1,0.2h-1.1c-0.1,0-0.2,0-0.2-0.1
			l-3.3-4.1h-1.3c-0.1,0-0.2,0-0.2,0.2v3.9c0,0.1,0,0.2-0.1,0.2h-0.9c-0.1,0-0.1,0-0.1-0.2V5.1c0-0.1,0.1-0.2,0.2-0.2H430.5z
			 M429.5,9.4c0,0.1,0,0.2,0.1,0.2h0.9c1.6,0,2.3-0.5,2.3-1.8S432,6,430.5,6h-0.9c-0.1,0-0.2,0-0.2,0.2L429.5,9.4L429.5,9.4z"/>
	</g>
	<rect x="209.7" y="9.6" transform="matrix(0.4099 -0.9121 0.9121 0.4099 121.0041 206.866)" width="21.4" height="0.7"/>
	<g>
		<g>
			<path d="M4.6,17.9c-2.1,0-3.4-0.6-3.9-0.9C0.3,16.5,0,14.9,0,13.3c0.2-0.3,0.7-0.3,0.9,0c0.5,1.5,2,3.6,3.9,3.6
				c1.7,0,2.5-1.2,2.5-2.3c0-1.9-1.7-3-3.1-3.6c-1.6-0.8-3.5-2.2-3.5-4.5c0-2.6,2-4.4,5.3-4.4c0.8,0,1.7,0.1,2.6,0.4
				c0.3,0.1,0.5,0.1,0.8,0.2C9.6,3.2,9.8,4.4,9.8,6C9.7,6.2,9.1,6.2,8.9,6c-0.4-1.2-1.4-2.8-3-2.8c-1.5,0-2.3,1-2.3,2.1
				s0.9,2,2.1,2.6l1.5,0.8c1.4,0.8,3.2,2.1,3.2,4.6C10.4,16.1,8.1,17.9,4.6,17.9z"/>
			<path d="M30.6,2.7c0,0.4,0.1,2.2,0.3,3.6c-0.1,0.3-0.7,0.4-0.9,0.2c-0.6-2.1-2.1-3.3-4.3-3.3c-2.5,0-5.3,2.2-5.3,6.7
				c0,4.6,2.6,7,5.4,7s4.1-2,4.7-3.5c0.2-0.2,0.7-0.1,0.9,0.2c-0.2,1.7-0.5,3.1-0.9,3.6c-1.2,0.3-2.9,0.8-4.6,0.8
				c-2.2,0-4.5-0.5-6.2-1.7c-1.6-1.3-2.9-3.2-2.9-6s1.2-4.8,2.8-6.1c1.6-1.4,4-2,6.3-2C28.2,2.1,29.9,2.6,30.6,2.7z"/>
			<path d="M53.6,9.9c0,5-3.3,8-8.3,8c-4.6,0-7.9-3-7.9-7.8c0-4.5,3.4-8,8.2-8C50.3,2.1,53.6,5.3,53.6,9.9z M45.4,3.1
				c-2.8,0-4.3,2.6-4.3,6.5c0,2.8,1,7.3,4.7,7.3c3,0,4.2-2.9,4.2-6.6C50,6.3,48.2,3.1,45.4,3.1z"/>
			<path d="M65,4.1c0-0.6,0-0.7-0.5-0.7H63c-1.7,0-2.2,0.9-2.8,2.6c-0.3,0.1-0.7,0.1-0.8-0.2c0.5-1.6,0.6-3,0.8-3.9
				c0.1-0.1,0.2-0.1,0.3-0.1s0.2,0,0.3,0.1c0.1,0.4,0.2,0.5,1.9,0.5h8.5c1.5,0,1.9,0,2.1-0.5c0.1,0,0.2-0.1,0.3-0.1s0.3,0.1,0.3,0.2
				c-0.2,0.8-0.4,2.6-0.3,3.9c-0.1,0.2-0.7,0.3-0.8,0.1c-0.4-1.5-0.7-2.5-2.4-2.5H69c-0.5,0-0.6,0.1-0.6,0.7v10.1
				c0,2.1,0.1,2.3,1.2,2.5l0.9,0.1c0.2,0.1,0.2,0.7,0,0.8c-1.5,0-2.6-0.1-3.7-0.1s-2.3,0-3.9,0.1c-0.2-0.1-0.2-0.7,0-0.8l1-0.1
				c1-0.1,1.2-0.3,1.2-2.5L65,4.1L65,4.1z"/>
			<path d="M85.2,4.1c0-0.6,0-0.7-0.6-0.7h-1.4c-1.7,0-2.2,0.9-2.8,2.6c-0.3,0.1-0.7,0.1-0.8-0.2c0.5-1.6,0.6-3,0.8-3.9
				c0.1-0.1,0.2-0.1,0.3-0.1s0.2,0,0.3,0.1c0.1,0.4,0.2,0.5,1.9,0.5h8.5c1.5,0,1.9,0,2.1-0.5c0.1,0,0.2-0.1,0.3-0.1
				c0.1,0,0.3,0.1,0.3,0.2c-0.2,0.8-0.4,2.6-0.3,3.9C93.6,6.2,93,6.2,92.9,6c-0.4-1.5-0.7-2.5-2.4-2.5h-1.4c-0.5,0-0.6,0.1-0.6,0.7
				v10.1c0,2.1,0.1,2.3,1.2,2.5l0.9,0.1c0.2,0.1,0.2,0.7,0,0.8c-1.5,0-2.6-0.1-3.7-0.1s-2.3,0-3.9,0.1c-0.2-0.1-0.2-0.7,0-0.8l1-0.1
				c1-0.1,1.2-0.3,1.2-2.5V4.1L85.2,4.1z"/>
		</g>
		<g>
			<path d="M107.6,5.9c0-2.4,0-2.8-1.5-2.9h-0.6c-0.1-0.1-0.1-0.5,0-0.6c1.3,0,2.1,0.1,3,0.1s1.7,0,2.8-0.1c0.1,0.1,0.2,0.5,0,0.6
				h-0.5c-1.4,0.1-1.4,0.5-1.4,2.9v8c0,1.4,0.1,2,0.5,2.5c0.3,0.3,0.7,0.5,2.5,0.5c1.9,0,2.4-0.1,2.8-0.3c0.5-0.3,1.1-1.1,1.5-2.3
				c0.1-0.1,0.6,0,0.6,0.1c0,0.3-0.6,2.6-1,3.2c-1.2,0-3.3-0.1-5.7-0.1h-2.1c-1,0-1.7,0-3,0.1c-0.1-0.1-0.2-0.4,0-0.6l0.7-0.1
				c1.3-0.1,1.4-0.5,1.4-2.9L107.6,5.9L107.6,5.9z"/>
			<path d="M122.5,10.1c0-4.6,3.4-8.1,8.2-8.1c5.3,0,7.9,3.8,7.9,7.9c0,4.6-3.5,8-7.9,8C125.6,17.9,122.5,14.3,122.5,10.1z
				 M136.3,10.6c0-3.8-1.7-7.9-6-7.9c-2.4,0-5.5,1.6-5.5,6.6c0,3.4,1.6,7.8,6.2,7.8C133.7,17.2,136.3,15.1,136.3,10.6z"/>
			<path d="M158.1,15.2c0,0.9,0.1,1.5,0.6,1.6c0.1,0.1,0.1,0.2,0,0.3c-0.3,0-0.7,0.1-1.1,0.2c-1.2,0.3-2.9,0.6-4.1,0.6
				c-2.7,0-5.2-0.8-7-2.5c-1.4-1.4-2.1-3.2-2.1-5.2c0-1.9,0.6-3.9,2.1-5.4c1.5-1.6,3.8-2.7,7.3-2.7c1.3,0,2.5,0.3,2.9,0.3
				c0.4,0.1,1.1,0.3,1.4,0.2c0,0.8,0.1,1.9,0.3,3.3c-0.1,0.2-0.5,0.2-0.6,0.1c-0.6-2.5-2.4-3.3-4.7-3.3c-4.4,0-6.4,3.2-6.4,6.6
				c0,4.4,2.3,7.9,6.9,7.9c1.4,0,2.3-0.3,2.5-0.7c0.1-0.2,0.2-0.6,0.2-1.3v-0.9c0-1.9-0.1-2.1-1.5-2.2l-1-0.1
				c-0.2-0.1-0.2-0.5,0-0.6c0.7,0,1.9,0.1,3.3,0.1c0.9,0,1.7,0,2.4-0.1c0.2,0.1,0.2,0.4,0,0.6h-0.4c-1,0.1-1,0.8-1,1.9L158.1,15.2
				L158.1,15.2z"/>
			<path d="M167.9,5.9c0-2.4,0-2.8-1.4-2.9h-0.6c-0.1-0.1-0.1-0.5,0-0.6c1.1,0,1.9,0.1,2.9,0.1c0.9,0,1.7,0,2.8-0.1
				c0.1,0.1,0.2,0.5,0,0.6H171c-1.4,0.1-1.4,0.5-1.4,2.9V14c0,2.4,0,2.7,1.4,2.9l0.6,0.1c0.1,0.1,0.1,0.5,0,0.6
				c-1.1,0-1.9-0.1-2.8-0.1c-1,0-1.7,0-2.9,0.1c-0.1-0.1-0.2-0.4,0-0.6l0.6-0.1c1.4-0.2,1.4-0.5,1.4-2.9V5.9z"/>
			<path d="M180.5,4c1.7-1.3,3.8-1.9,6.2-1.9c1.2,0,3,0.3,4.1,0.6c0.3,0.1,0.4,0.1,0.6,0.1c0,0.5,0.1,2,0.3,3.4
				c-0.1,0.2-0.5,0.2-0.6,0c-0.3-1.6-1.4-3.3-4.7-3.3c-3.5,0-6.5,2.2-6.5,7s3,7.5,6.8,7.5c3,0,4.3-1.9,4.8-3.3
				c0.2-0.1,0.5-0.1,0.6,0.1c-0.2,1.2-0.8,2.7-1.1,3.1c-0.3,0-0.6,0.1-0.8,0.2c-0.5,0.2-2.2,0.5-3.6,0.5c-2.1,0-4-0.4-5.7-1.5
				c-1.8-1.3-3.2-3.3-3.2-6.3C177.6,7.5,178.7,5.4,180.5,4z"/>
		</g>
	</g>
</g>
</svg>
